# xmcd
#
# Track frame offsets:
#	150
#	10638
#	23241
#	36159
#	48312
#	60172
#	68210
#	78773
#	90948
#	105358
#	115906
#	125561
#	138268
#	158003
#	167553
#	180186
#	191484
#	200472
#	210854
#	222774
#	235174
#	247049
#	258782
#	272382
#
# Disc length: 3798 seconds
#
# Revision: 0
# Processed by: cddbd v1.5.2PL0 Copyright (c) Steve Scherf et al.
# Submitted via: EasyCDDAExtractor 8.2.3.1
#
DISCID=230ed418
DTITLE=Liz Anderson - Cookin' Up Hits -67 and Sings Her Favorites -68
DYEAR=1968
DGENRE=Country
TTITLE0=Never Ever
TTITLE1=Tiny Tears
TTITLE2=I'm A Lonesome Fugitive
TTITLE3=On Your Way To Come
TTITLE4=The Spirit Of Christmas
TTITLE5=Ride Ride Ride
TTITLE6=The Chiseler
TTITLE7=Come Walk In My Shoes
TTITLE8=Grandma's House
TTITLE9=If I Kiss You (Will You Go Away)
TTITLE10=Never Is A Long Long Day
TTITLE11=Behind My Back
TTITLE12=Ode To Billie Joe
TTITLE13=I'd Be More Of A Woman
TTITLE14=Apartment #9
TTITLE15=Dumb Blonde
TTITLE16=Lay Some Happiness On Me
TTITLE17=What Locks The Door
TTITLE18=Thanks A Lot For Tryin' Anyway
TTITLE19=I Washed My Face In The Morning Dew
TTITLE20=Your Tender Loving Care
TTITLE21=Get While The Gettin's Good
TTITLE22=Somewhere Between
TTITLE23=Something Called Happiness
EXTD=
EXTT0=
EXTT1=
EXTT2=
EXTT3=
EXTT4=
EXTT5=
EXTT6=
EXTT7=
EXTT8=
EXTT9=
EXTT10=
EXTT11=
EXTT12=
EXTT13=
EXTT14=
EXTT15=
EXTT16=
EXTT17=
EXTT18=
EXTT19=
EXTT20=
EXTT21=
EXTT22=
EXTT23=
PLAYORDER=
